# AST/ASF file generated using VICON BodyLanguage
# -----------------------------------------------
:version 1.10
:name VICON
:units
  mass 1.0
  length 0.45
  angle deg
:documentation
   .ast/.asf automatically generated from VICON data using
   VICON BodyBuilder and BodyLanguage model FoxedUp or BRILLIANT.MOD
:root
   order TX TY TZ RX RY RZ
   axis XYZ
   position 0 0 0  
   orientation 0 0 0 
:bonedata
  begin
     id 1 
     name lhipjoint
     direction 0.561001 -0.76473 0.316963 
     length 2.4722 
     axis 0 0 0  XYZ
  end
  begin
     id 2 
     name lfemur
     direction 0.34202 -0.939693 0  
     length 7.59403  
     axis 0 0 20  XYZ
    dof rx ry rz
    limits (-160.0 20.0)
           (-70.0 70.0)
           (-60.0 70.0)
  end
  begin
     id 3 
     name ltibia
     direction 0.34202 -0.939693 0   
     length 7.89655   
     axis 0 0 20   XYZ
    dof rx
    limits (-10.0 170.0)
  end
  begin
     id 4 
     name lfoot
     direction 0.061296 -0.168409 0.98381   
     length 2.73287   
     axis -90 7.62852e-016 20   XYZ
    dof rx rz
    limits (-45.0 90.0)
           (-70.0 20.0)
  end
  begin
     id 5 
     name ltoes
     direction 1.53547e-011 -4.21984e-011 1   
     length 1.37057   
     axis -90 7.62852e-016 20   XYZ
    dof rx
    limits (-90.0 20.0)
  end
  begin
     id 6 
     name rhipjoint
     direction -0.559611 -0.765599 0.317323   
     length 2.46939  
     axis 0 0 0  XYZ 
  end
  begin
     id 7 
     name rfemur
     direction -0.34202 -0.939693 0   
     length 7.53712   
     axis 0 0 -20   XYZ
    dof rx ry rz
    limits (-160.0 20.0)
           (-70.0 70.0)
           (-70.0 60.0)
  end
  begin
     id 8 
     name rtibia
     direction -0.34202 -0.939693 0   
     length 8.12549   
     axis 0 0 -20   XYZ
    dof rx
    limits (-10.0 170.0)
 end
 begin
     id 9 
     name rfoot
     direction -0.066984 -0.184037 0.980634   
     length 2.67541  
     axis -90 -7.62852e-016 -20   XYZ
    dof rx rz
    limits (-45.0 90.0)
           (-20.0 70.0)
  end
  begin
     id 10 
     name rtoes
     direction -1.53549e-011 -4.21786e-011 1   
     length 1.34085   
     axis -90 -7.62852e-016 -20   XYZ
    dof rx
    limits (-90.0 20.0)
  end
  begin
     id 11 
     name lowerback
     direction -0.0522728 0.992594 -0.109658   
     length 2.05633   
     axis 0 0 0   XYZ
    dof rx ry rz
    limits (-20.0 45.0)
           (-30.0 30.0)
           (-30.0 30.0)
  end
  begin
     id 12 
     name upperback
     direction 0.00589338 0.999977 0.00335704   
     length 2.05845   
     axis 0 0 0   XYZ
    dof rx ry rz
    limits (-20.0 45.0)
           (-30.0 30.0)
           (-30.0 30.0)
  end
  begin
     id 13 
     name thorax
     direction 0.0292928 0.998059 0.0549487   
     length 2.09281   
     axis 0 0 0   XYZ
    dof rx ry rz
    limits (-20.0 45.0)
           (-30.0 30.0)
           (-30.0 30.0)
  end
  begin
     id 14 
     name lowerneck
     direction 0.0356368 0.980775 0.191858   
     length 1.84767   
     axis 0 0 0   XYZ
    dof rx ry rz
    limits (-20.0 45.0)
           (-30.0 30.0)
           (-30.0 30.0)
  end
  begin
     id 15 
     name upperneck
     direction -0.0227605 0.98931 -0.14404   
     length 1.89582   
     axis 0 0 0   XYZ
    dof rx ry rz
    limits (-20.0 45.0)
           (-30.0 30.0)
           (-30.0 30.0)
  end
  begin
     id 16
     name head
     direction -0.00932985 0.997511 -0.0698904  
     length 1.90213  
     axis 0 0 0   XYZ
    dof rx ry rz
    limits (-20.0 45.0)
           (-30.0 30.0)
           (-30.0 30.0)
  end
  begin
     id 17 
     name lclavicle
     direction 0.873442 0.479511 0.0846686  
     length 3.41193  
     axis 0 0 0   XYZ
    dof ry rz
    limits (-20.0 10.0)
           (0.0 20.0)
  end
  begin
     id 18 
     name lhumerus
     direction 1 -4.4897e-011 -5.62117e-018   
     length 5.59864   
     axis 180 -30 -90   XYZ
    dof rx ry rz
    limits (-60.0 90.0)
           (-90.0 90.0)
           (-90.0 90.0)
  end
  begin
     id 19
     name lradius
     direction 1 -4.48966e-011 -6.26295e-027   
     length 3.59542   
     axis 180 -30 -90   XYZ
    dof rx
    limits (-10.0 170.0)
  end
  begin
     id 20
     name lwrist
     direction 1 -4.48947e-011 -1.74096e-026   
     length 1.79771   
     axis 1.04567e-014 90 90   XYZ
    dof ry
    limits (-180.0 0.0)
 end
  begin
     id 21 
     name lhand
     direction 1 -4.49085e-011 -3.48469e-026   
     length 0.572014   
     axis 2.22196e-014 90 90   XYZ
    dof rx rz
    limits (-90.0 90.0)
           (-45.0 45.0)
  end
  begin
     id 22 
     name lfingers
     direction 1 -4.48884e-011 -6.96135e-026   
     length 0.461173   
     axis 4.44383e-014 90 90   XYZ
    dof rx
    limits (0.0 90.0)
  end
  begin
     id 23
     name lthumb
     direction 0.707107 -6.34976e-011 0.707107   
     length 0.662154   
     axis -90 45 -5.4397e-014   XYZ
    dof rx rz
    limits (-45.0 45.0)
           (-45.0 45.0)
  end
  begin
     id 24 
     name rclavicle
     direction -0.890242 0.443271 0.104786   
     length 3.46753  
     axis 0 0 0   XYZ 
    dof ry rz
    limits (-10.0 20.0)
           (-20.0 0.0)
  end
  begin
     id 25 
     name rhumerus
     direction -1 -4.48963e-011 -5.41723e-018  
     length 5.8094   
     axis 180 30 90   XYZ
    dof rx ry rz
    limits (-90.0 60.0)
           (-90.0 90.0)
           (-90.0 90.0)
  end
  begin
     id 26 
     name rradius
     direction -1 -4.48958e-011 -6.51059e-027   
     length 3.66953   
     axis 180 30 90   XYZ
    dof rx
    limits (-10.0 170.0)
  end
  begin
     id 27 
     name rwrist
     direction -1 -4.48975e-011 -1.74124e-026   
     length 1.83476   
     axis 1.04567e-014 -90 -90   XYZ
    dof ry
    limits (-180.0 0.0)
  end
  begin
     id 28
     name rhand
     direction -1 -4.49013e-011 -3.48326e-026   
     length 0.57843   
     axis 2.22196e-014 -90 -90   XYZ
    dof rx rz
    limits (-90.0 90.0)
           (-45.0 45.0)
  end
  begin
     id 29
     name rfingers
     direction -1 -4.49023e-011 -6.9669e-026   
     length 0.466345   
     axis 4.44383e-014 -90 -90   XYZ
    dof rx
    limits (0.0 90.0)
  end
  begin
     id 30
     name rthumb
     direction -0.707107 -6.34926e-011 0.707107   
     length 0.669581   
     axis -90 -45 5.4397e-014   XYZ
    dof rx rz
    limits (-45.0 45.0)
           (-45.0 45.0)
  end
:hierarchy
  begin
    root lhipjoint rhipjoint lowerback
    lhipjoint lfemur
    lfemur ltibia
    ltibia lfoot
    lfoot ltoes
    rhipjoint rfemur
    rfemur rtibia
    rtibia rfoot
    rfoot rtoes
    lowerback upperback
    upperback thorax
    thorax lowerneck lclavicle rclavicle
    lowerneck upperneck
    upperneck head
    lclavicle lhumerus
    lhumerus lradius
    lradius lwrist
    lwrist lhand lthumb
    lhand lfingers
    rclavicle rhumerus
    rhumerus rradius
    rradius rwrist
    rwrist rhand rthumb
    rhand rfingers
  end

#!OML:ASF H:\SkateBoarding\Project 1\Capture day 1\Session 1\Skater.ASF
:FULLY-SPECIFIED
:DEGREES
179
root 6.45375 15.6354 -9.53596 18.5808 18.405 5.43408
lowerback 22.0174 4.277 -7.61406
upperback 5.54495 4.00148 0.962112
thorax -6.74777 2.05434 4.2773
lowerneck -25.1101 -6.02183 -1.54645
upperneck 29.0017 -9.56625 4.62293
head 14.5269 -3.51645 0.2709
rclavicle -5.40694e-014 4.05521e-014
rhumerus 16.7244 15.6727 -45.1458
rradius 40.985
rwrist -1.5727
rhand -35.3322 -13.0209
rfingers 7.12502
rthumb -8.4654 -42.8312
lclavicle -5.40694e-014 4.05521e-014
lhumerus 9.33769 -15.2635 57.2649
lradius 68.5975
lwrist 28.6926
lhand -32.8074 8.61033
lfingers 7.12502
lthumb -6.02825 38.5046
rfemur -84.7153 0.255719 3.01172
rtibia 90.1686
rfoot -13.601 19.001
rtoes -12.9332
lfemur -7.21195 -8.77262 -14.3546
ltibia 50.6615
lfoot -16.5923 -34.9949
ltoes 3.72004
180
root 6.4314 15.5839 -9.15278 18.897 19.5552 5.20835
lowerback 21.5665 3.94798 -7.09237
upperback 5.06859 3.71693 1.00696
thorax -6.97611 1.93065 4.11798
lowerneck -24.9932 -5.93849 -1.02961
upperneck 28.8575 -9.49875 4.19099
head 14.3744 -3.5032 0.0310641
rclavicle 4.77083e-015 2.14687e-014
rhumerus 16.1232 17.2581 -43.2179
rradius 42.1759
rwrist -2.06078
rhand -35.8074 -12.9325
rfingers 7.12502
rthumb -8.924 -42.7237
lclavicle 4.77083e-015 2.14687e-014
lhumerus 12.5316 -15.1776 54.5817
lradius 70.8795
lwrist 28.7281
lhand -33.2012 8.74198
lfingers 7.12502
lthumb -6.40845 38.625
rfemur -85.1998 -0.711439 3.79423
rtibia 90.596
rfoot -14.1189 18.8142
rtoes -13.2448
lfemur -5.39539 -9.46665 -13.3448
ltibia 48.2556
lfoot -15.5206 -34.6724
ltoes 5.50438
181
root 6.40993 15.5463 -8.76167 19.3256 20.6868 4.80279
lowerback 21.0453 3.54285 -6.54882
upperback 4.56804 3.35078 1.20151
thorax -7.19235 1.76631 4.13299
lowerneck -25.0238 -5.86389 -0.965844
upperneck 28.7849 -9.34667 3.99449
head 14.3259 -3.46393 -0.0281653
rclavicle -2.38542e-015 -2.70347e-014
rhumerus 16.0009 19.1498 -41.0241
rradius 43.3283
rwrist -2.51762
rhand -36.9289 -12.8196
rfingers 7.12502
rthumb -10.0061 -42.5617
lclavicle -2.38542e-015 -2.70347e-014
lhumerus 15.4665 -14.5864 52.0624
lradius 72.9819
lwrist 28.6417
lhand -33.6607 8.75082
lfingers 7.12502
lthumb -6.85199 38.6199
rfemur -85.6888 -1.688 4.75798
rtibia 90.6944
rfoot -14.102 19.0072
rtoes -13.0402
lfemur -3.63518 -10.2832 -12.1684
ltibia 45.5489
lfoot -15.0944 -33.9279
ltoes 6.18978
182
root 6.39334 15.5231 -8.35276 19.8624 21.8476 4.49938
lowerback 20.3874 3.14926 -6.14321
upperback 4.05248 2.97902 1.45377
thorax -7.36015 1.59999 4.29157
lowerneck -24.9347 -5.7888 -0.80047
upperneck 28.6609 -9.16651 3.61229
head 14.2108 -3.43359 -0.168298
rclavicle -1.59028e-014 1.19271e-014
rhumerus 15.9492 20.97 -38.8307
rradius 44.375
rwrist -2.74738
rhand -37.1483 -12.6109
rfingers 7.12502
rthumb -10.2177 -42.3428
lclavicle -1.59028e-014 1.19271e-014
lhumerus 18.1821 -13.781 49.7109
lradius 74.9222
lwrist 28.2071
lhand -34.0201 8.83344
lfingers 7.12502
lthumb -7.19894 38.691
rfemur -85.9629 -2.6574 5.51544
rtibia 90.5606
rfoot -13.7676 19.5304
rtoes -11.901
lfemur -1.82868 -11.4052 -11.1438
ltibia 42.5366
lfoot -15.2931 -32.7569
ltoes 6.07302
183
root 6.38008 15.504 -7.93264 20.3906 22.8382 4.10276
lowerback 19.7286 2.78094 -5.79243
upperback 3.54166 2.62742 1.75582
thorax -7.52552 1.44379 4.5261
lowerneck -25.0585 -5.68445 -0.840215
upperneck 28.7 -8.90671 3.32395
head 14.2285 -3.36736 -0.229792
rclavicle -6.36111e-015 7.15625e-015
rhumerus 16.1865 22.7916 -36.601
rradius 45.3715
rwrist -2.97351
rhand -37.3959 -12.2714
rfingers 7.12502
rthumb -10.4566 -41.9914
lclavicle -6.36111e-015 7.15625e-015
lhumerus 20.5128 -12.7168 47.5028
lradius 76.8337
lwrist 27.8373
lhand -34.7457 8.87545
lfingers 7.12502
lthumb -7.89934 38.7079
rfemur -86.2694 -3.51866 6.30765
rtibia 90.3177
rfoot -12.803 20.2057
rtoes -10.125
lfemur 0.244065 -12.6725 -10.1656
ltibia 39.0485
lfoot -16.0493 -31.0846
ltoes 4.92256
